{
  "source": "C:\\Users\\Peter\\Desktop\\stuff\\MIUN\\quantitative_research\\video_compression\\videos\\UVG\\Jockey_1920x1080_120fps_420_8bit_YUV.y4m",
  "output": "C:\\Users\\Peter\\Desktop\\stuff\\MIUN\\quantitative_research\\video_compression\\compressed_videos\\UVG\\h264\\1.5\\Jockey_1920x1080_120fps_420_8bit_YUV_h264.mp4",
  "codec": "h264",
  "ok": "[yuv4mpegpipe @ 0000020305fb5e40] Stream #0: not enough frames to estimate rate; consider increasing probesize\nInput #0, yuv4mpegpipe, from 'C:\\Users\\Peter\\Desktop\\stuff\\MIUN\\quantitative_research\\video_compression\\videos\\UVG\\Jockey_1920x1080_120fps_420_8bit_YUV.y4m':\n  Duration: 00:00:05.00, start: 0.000000, bitrate: 2985989 kb/s\n  Stream #0:0: Video: rawvideo (I420 / 0x30323449), yuv420p(progressive), 1920x1080, 120 fps, 120 tbr, 120 tbn\n[out#0/mp4 @ 0000020305fba640] Codec AVOption b:a (set bitrate (in bits/s)) has not been used for any stream. The most likely reason is either wrong type (e.g. a video option with no video streams) or that it is a private option of some decoder which was not actually used for any stream.\nStream mapping:\n  Stream #0:0 -> #0:0 (rawvideo (native) -> h264 (libx264))\nPress [q] to stop, [?] for help\n[libx264 @ 0000020305fbcac0] using cpu capabilities: MMX2 SSE2Fast SSSE3 SSE4.2 AVX FMA3 BMI2 AVX2\n[libx264 @ 0000020305fbcac0] profile High, level 5.1, 4:2:0, 8-bit\n[libx264 @ 0000020305fbcac0] 264 - core 165 r3222 b35605a - H.264/MPEG-4 AVC codec - Copyleft 2003-2025 - http://www.videolan.org/x264.html - options: cabac=1 ref=5 deblock=1:0:0 analyse=0x3:0x113 me=hex subme=8 psy=1 psy_rd=1.00:0.00 mixed_ref=1 me_range=16 chroma_me=1 trellis=2 8x8dct=1 cqm=0 deadzone=21,11 fast_pskip=1 chroma_qp_offset=-2 threads=18 lookahead_threads=3 sliced_threads=0 nr=0 decimate=1 interlaced=0 bluray_compat=0 constrained_intra=0 bframes=3 b_pyramid=2 b_adapt=1 b_bias=0 direct=3 weightb=1 open_gop=0 weightp=2 keyint=250 keyint_min=25 scenecut=40 intra_refresh=0 rc_lookahead=50 rc=cbr mbtree=1 bitrate=1500 ratetol=1.0 qcomp=0.60 qpmin=0 qpmax=69 qpstep=4 vbv_maxrate=1500 vbv_bufsize=1500 nal_hrd=none filler=0 ip_ratio=1.40 aq=1:1.00\nOutput #0, mp4, to 'C:\\Users\\Peter\\Desktop\\stuff\\MIUN\\quantitative_research\\video_compression\\compressed_videos\\UVG\\h264\\1.5\\Jockey_1920x1080_120fps_420_8bit_YUV_h264.mp4':\n  Metadata:\n    encoder         : Lavf62.3.100\n  Stream #0:0: Video: h264 (avc1 / 0x31637661), yuv420p(tv, progressive), 1920x1080, q=2-31, 1500 kb/s, 120 fps, 15360 tbn\n    Metadata:\n      encoder         : Lavc62.11.100 libx264\n    Side data:\n      cpb: bitrate max/min/avg: 1500000/0/1500000 buffer size: 1500000 vbv_delay: N/A\nframe=    0 fps=0.0 q=0.0 size=       0KiB time=N/A bitrate=N/A speed=N/A elapsed=0:00:00.51    \nframe=   11 fps= 11 q=51.0 size=       0KiB time=00:00:00.07 bitrate=   5.1kbits/s speed=0.0726x elapsed=0:00:01.03    \nframe=   49 fps= 32 q=48.0 size=       0KiB time=00:00:00.39 bitrate=   1.0kbits/s speed=0.252x elapsed=0:00:01.55    \nframe=   87 fps= 42 q=48.0 size=       0KiB time=00:00:00.70 bitrate=   0.5kbits/s speed=0.342x elapsed=0:00:02.07    \nframe=  124 fps= 48 q=48.0 size=       0KiB time=00:00:00.98 bitrate=   0.4kbits/s speed=0.378x elapsed=0:00:02.60    \nframe=  159 fps= 51 q=51.0 size=       0KiB time=00:00:01.30 bitrate=   0.3kbits/s speed=0.419x elapsed=0:00:03.12    \nframe=  199 fps= 54 q=52.0 size=     256KiB time=00:00:01.64 bitrate=1277.7kbits/s speed=0.447x elapsed=0:00:03.67    \nframe=  224 fps= 53 q=54.0 size=     256KiB time=00:00:01.85 bitrate=1133.8kbits/s speed=0.439x elapsed=0:00:04.21    \nframe=  228 fps= 48 q=51.0 size=     256KiB time=00:00:01.87 bitrate=1118.7kbits/s speed=0.397x elapsed=0:00:04.71    \nframe=  264 fps= 50 q=55.0 size=     256KiB time=00:00:02.18 bitrate= 960.7kbits/s speed=0.417x elapsed=0:00:05.23    \nframe=  302 fps= 52 q=59.0 size=     512KiB time=00:00:02.50 bitrate=1677.9kbits/s speed=0.434x elapsed=0:00:05.75    \nframe=  337 fps= 54 q=58.0 size=     512KiB time=00:00:02.79 bitrate=1502.6kbits/s speed=0.445x elapsed=0:00:06.27    \nframe=  373 fps= 55 q=54.0 size=     512KiB time=00:00:03.09 bitrate=1356.8kbits/s speed=0.456x elapsed=0:00:06.78    \nframe=  398 fps= 54 q=55.0 size=     512KiB time=00:00:03.30 bitrate=1271.1kbits/s speed=0.452x elapsed=0:00:07.30    \nframe=  417 fps= 53 q=53.0 size=     512KiB time=00:00:03.45 bitrate=1212.9kbits/s speed=0.442x elapsed=0:00:07.81    \nframe=  428 fps= 51 q=52.0 size=     512KiB time=00:00:03.55 bitrate=1181.6kbits/s speed=0.426x elapsed=0:00:08.32    \nframe=  439 fps= 50 q=52.0 size=     512KiB time=00:00:03.64 bitrate=1151.9kbits/s speed=0.412x elapsed=0:00:08.84    \nframe=  454 fps= 48 q=51.0 size=     512KiB time=00:00:03.76 bitrate=1113.6kbits/s speed=0.402x elapsed=0:00:09.36    \nframe=  470 fps= 48 q=50.0 size=     512KiB time=00:00:03.90 bitrate=1075.6kbits/s speed=0.394x elapsed=0:00:09.88    \nframe=  484 fps= 47 q=49.0 size=     512KiB time=00:00:04.01 bitrate=1044.3kbits/s speed=0.386x elapsed=0:00:10.40    \nframe=  499 fps= 46 q=49.0 size=     512KiB time=00:00:04.14 bitrate=1012.8kbits/s speed=0.379x elapsed=0:00:10.91    \nframe=  529 fps= 46 q=49.0 size=     768KiB time=00:00:04.35 bitrate=1443.6kbits/s speed=0.381x elapsed=0:00:11.42    \nframe=  595 fps= 50 q=-1.0 size=     768KiB time=00:00:04.94 bitrate=1273.2kbits/s speed=0.414x elapsed=0:00:11.94    \n[mp4 @ 0000020305fbb780] Starting second pass: moving the moov atom to the beginning of the file\n[out#0/mp4 @ 0000020305fba640] video:884KiB audio:0KiB subtitle:0KiB other streams:0KiB global headers:0KiB muxing overhead: 0.793482%\nframe=  600 fps= 50 q=-1.0 Lsize=     891KiB time=00:00:04.98 bitrate=1464.8kbits/s speed=0.416x elapsed=0:00:11.97    \n[libx264 @ 0000020305fbcac0] frame I:7     Avg QP:48.27  size:  4545\n[libx264 @ 0000020305fbcac0] frame P:230   Avg QP:49.17  size:  2008\n[libx264 @ 0000020305fbcac0] frame B:363   Avg QP:50.36  size:  1131\n[libx264 @ 0000020305fbcac0] consecutive B-frames: 16.2%  5.7% 11.5% 66.7%\n[libx264 @ 0000020305fbcac0] mb I  I16..4: 22.7% 77.2%  0.0%\n[libx264 @ 0000020305fbcac0] mb P  I16..4:  7.3%  5.9%  0.0%  P16..4:  7.0%  0.1%  0.2%  0.0%  0.0%    skip:79.4%\n[libx264 @ 0000020305fbcac0] mb B  I16..4:  0.2%  0.1%  0.0%  B16..8: 11.9%  0.1%  0.0%  direct: 0.8%  skip:86.8%  L0:37.9% L1:61.9% BI: 0.2%\n[libx264 @ 0000020305fbcac0] 8x8 transform intra:50.0% inter:98.6%\n[libx264 @ 0000020305fbcac0] direct mvs  spatial:97.5% temporal:2.5%\n[libx264 @ 0000020305fbcac0] coded y,uvDC,uvAC intra: 0.7% 19.7% 0.3% inter: 0.0% 1.5% 0.0%\n[libx264 @ 0000020305fbcac0] i16 v,h,dc,p: 51% 38%  3%  8%\n[libx264 @ 0000020305fbcac0] i8 v,h,dc,ddl,ddr,vr,hd,vl,hu: 15%  8% 75%  0%  0%  0%  0%  0%  0%\n[libx264 @ 0000020305fbcac0] i4 v,h,dc,ddl,ddr,vr,hd,vl,hu: 40% 19% 11%  7%  8%  5%  2%  3%  4%\n[libx264 @ 0000020305fbcac0] i8c dc,h,v,p: 92%  5%  2%  0%\n[libx264 @ 0000020305fbcac0] Weighted P-Frames: Y:0.0% UV:0.0%\n[libx264 @ 0000020305fbcac0] ref P L0: 58.1%  1.8% 22.6%  7.9%  7.7%  1.9%\n[libx264 @ 0000020305fbcac0] ref B L0: 76.5% 15.1%  6.7%  1.7%\n[libx264 @ 0000020305fbcac0] ref B L1: 92.3%  7.7%\n[libx264 @ 0000020305fbcac0] kb/s:1447.18\n",
  "seconds": 12.11899709701538,
  "probe_out": {}
}